%TF.GenerationSoftware,KiCad,Pcbnew,9.0.6*%
%TF.CreationDate,2025-12-16T12:20:02+05:30*%
%TF.ProjectId,MINI INVERTER,4d494e49-2049-44e5-9645-525445522e6b,rev?*%
%TF.SameCoordinates,Original*%
%TF.FileFunction,Soldermask,Bot*%
%TF.FilePolarity,Negative*%
%FSLAX46Y46*%
G04 Gerber Fmt 4.6, Leading zero omitted, Abs format (unit mm)*
G04 Created by KiCad (PCBNEW 9.0.6) date 2025-12-16 12:20:02*
%MOMM*%
%LPD*%
G01*
G04 APERTURE LIST*
G04 Aperture macros list*
%AMRoundRect*
0 Rectangle with rounded corners*
0 $1 Rounding radius*
0 $2 $3 $4 $5 $6 $7 $8 $9 X,Y pos of 4 corners*
0 Add a 4 corners polygon primitive as box body*
4,1,4,$2,$3,$4,$5,$6,$7,$8,$9,$2,$3,0*
0 Add four circle primitives for the rounded corners*
1,1,$1+$1,$2,$3*
1,1,$1+$1,$4,$5*
1,1,$1+$1,$6,$7*
1,1,$1+$1,$8,$9*
0 Add four rect primitives between the rounded corners*
20,1,$1+$1,$2,$3,$4,$5,0*
20,1,$1+$1,$4,$5,$6,$7,0*
20,1,$1+$1,$6,$7,$8,$9,0*
20,1,$1+$1,$8,$9,$2,$3,0*%
G04 Aperture macros list end*
%ADD10C,2.100000*%
%ADD11RoundRect,0.250000X-0.550000X-0.550000X0.550000X-0.550000X0.550000X0.550000X-0.550000X0.550000X0*%
%ADD12C,1.600000*%
%ADD13C,1.400000*%
%ADD14RoundRect,0.249999X0.850001X-0.850001X0.850001X0.850001X-0.850001X0.850001X-0.850001X-0.850001X0*%
%ADD15C,2.200000*%
%ADD16R,1.905000X2.000000*%
%ADD17O,1.905000X2.000000*%
%ADD18RoundRect,0.250000X-0.750000X-0.750000X0.750000X-0.750000X0.750000X0.750000X-0.750000X0.750000X0*%
%ADD19C,2.000000*%
%ADD20C,1.620000*%
%ADD21RoundRect,0.250000X0.750000X-0.750000X0.750000X0.750000X-0.750000X0.750000X-0.750000X-0.750000X0*%
%ADD22R,1.800000X1.800000*%
%ADD23C,1.800000*%
G04 APERTURE END LIST*
D10*
%TO.C,REF\u002A\u002A*%
X93726000Y-97790000D03*
%TD*%
D11*
%TO.C,C3*%
X113639621Y-84930000D03*
D12*
X116139621Y-84930000D03*
%TD*%
%TO.C,C1*%
X107822000Y-79430000D03*
X107822000Y-76930000D03*
%TD*%
D13*
%TO.C,R5*%
X132822000Y-76835000D03*
X132822000Y-74935000D03*
%TD*%
D10*
%TO.C,REF\u002A\u002A*%
X92964000Y-69342000D03*
%TD*%
D13*
%TO.C,R6*%
X138922000Y-85930000D03*
X138922000Y-84030000D03*
%TD*%
%TO.C,R1*%
X114822000Y-94330000D03*
X114822000Y-92430000D03*
%TD*%
D14*
%TO.C,D1*%
X107822000Y-94510000D03*
D15*
X107822000Y-84350000D03*
%TD*%
D16*
%TO.C,Q2*%
X142782000Y-92380000D03*
D17*
X145322000Y-92380000D03*
X147862000Y-92380000D03*
%TD*%
D11*
%TO.C,C2*%
X98822000Y-83430000D03*
D12*
X101322000Y-83430000D03*
%TD*%
D18*
%TO.C,D2*%
X138322000Y-75430000D03*
D19*
X140862000Y-75430000D03*
%TD*%
D12*
%TO.C,C4*%
X113072000Y-77930000D03*
X115572000Y-77930000D03*
%TD*%
D13*
%TO.C,R3*%
X132422000Y-82930000D03*
X134322000Y-82930000D03*
%TD*%
D20*
%TO.C,RV1*%
X112822000Y-71580000D03*
X110322000Y-74080000D03*
X107822000Y-71580000D03*
%TD*%
D10*
%TO.C,REF\u002A\u002A*%
X154940000Y-70104000D03*
%TD*%
D11*
%TO.C,U1*%
X121322000Y-73890000D03*
D12*
X121322000Y-76430000D03*
X121322000Y-78970000D03*
X121322000Y-81510000D03*
X128942000Y-81510000D03*
X128942000Y-78970000D03*
X128942000Y-76430000D03*
X128942000Y-73890000D03*
%TD*%
D13*
%TO.C,R4*%
X132422000Y-86080000D03*
X134322000Y-86080000D03*
%TD*%
D21*
%TO.C,BT1*%
X99822000Y-74930000D03*
D19*
X99822000Y-72390000D03*
%TD*%
D13*
%TO.C,R2*%
X123822000Y-86930000D03*
X125722000Y-86930000D03*
%TD*%
D10*
%TO.C,REF\u002A\u002A*%
X154432000Y-97790000D03*
%TD*%
D21*
%TO.C,T1*%
X147822000Y-83590000D03*
D19*
X147822000Y-81050000D03*
X147822000Y-78510000D03*
X147822000Y-75970000D03*
X147822000Y-73430000D03*
%TD*%
D22*
%TO.C,D3*%
X99047000Y-92930000D03*
D23*
X101587000Y-92930000D03*
%TD*%
D16*
%TO.C,Q1*%
X122782000Y-94380000D03*
D17*
X125322000Y-94380000D03*
X127862000Y-94380000D03*
%TD*%
M02*
